<?xml version="1.0" encoding="utf-8"?>
<!-- Generator: Adobe Illustrator 19.1.0, SVG Export Plug-In . SVG Version: 6.00 Build 0)  -->
<svg version="1.1" id="Layer_1" xmlns="http://www.w3.org/2000/svg" xmlns:xlink="http://www.w3.org/1999/xlink" x="0px" y="0px"
	 viewBox="0 0 191.3 61.8" style="enable-background:new 0 0 191.3 61.8;" xml:space="preserve">
<style type="text/css">
	.st0{fill:#FFFFFF;}
</style>
<path class="st0" d="M35.4,1.2v59.3H20V35.6h-4.6v24.9H0V1.2h15.4v21.2H20V1.2H35.4z M41.6,1.2h10.9c7.3,0,12.2,0.3,14.8,0.8
	c2.6,0.6,4.7,2,6.3,4.3c1.6,2.3,2.4,6,2.4,11c0,4.6-0.6,7.7-1.7,9.3c-1.1,1.6-3.4,2.5-6.8,2.9c3.1,0.8,5.1,1.8,6.2,3
	c1,1.3,1.7,2.4,2,3.5c0.3,1.1,0.4,4,0.4,8.8v15.6H61.7V40.8c0-3.2-0.3-5.1-0.8-5.9c-0.5-0.8-1.8-1.1-3.9-1.1v26.7H41.6V1.2z
	 M57.1,11.4v13.2c1.7,0,2.9-0.2,3.6-0.7c0.7-0.5,1-2,1-4.6V16c0-1.9-0.3-3.1-1-3.7S58.8,11.4,57.1,11.4z M97.4,1.2v59.3H82V1.2H97.4
	z M151.2,1.2v59.3h-13.5l0-40l-5.4,40h-9.6l-5.7-39.1l0,39.1h-13.5V1.2h19.9c0.6,3.6,1.2,7.8,1.8,12.6l2.2,15.1l3.5-27.7H151.2z
	 M190.1,19.2h-14.3v-4.4c0-2.1-0.2-3.4-0.5-3.9c-0.4-0.6-1-0.8-1.8-0.8c-0.9,0-1.6,0.4-2.1,1.1c-0.5,0.8-0.7,1.9-0.7,3.4
	c0,2,0.3,3.5,0.8,4.5c0.5,1,2,2.2,4.4,3.6c6.9,4.1,11.2,7.4,13,10c1.8,2.6,2.7,6.8,2.7,12.6c0,4.2-0.5,7.3-1.5,9.3
	c-1,2-2.9,3.7-5.7,5c-2.8,1.4-6.1,2-9.9,2c-4.1,0-7.6-0.8-10.6-2.3s-4.8-3.6-5.7-6c-0.9-2.4-1.4-5.8-1.4-10.3v-3.9h14.3v7.2
	c0,2.2,0.2,3.6,0.6,4.3c0.4,0.6,1.1,1,2.1,1s1.8-0.4,2.3-1.2c0.5-0.8,0.8-2,0.8-3.6c0-3.5-0.5-5.8-1.4-6.8c-1-1.1-3.4-2.9-7.2-5.4
	c-3.8-2.5-6.4-4.4-7.6-5.5c-1.2-1.1-2.3-2.7-3.1-4.8c-0.8-2-1.2-4.6-1.2-7.8c0-4.5,0.6-7.9,1.7-10c1.2-2.1,3-3.7,5.6-4.9
	c2.6-1.2,5.7-1.8,9.4-1.8c4,0,7.4,0.6,10.2,1.9c2.8,1.3,4.7,2.9,5.6,4.9c0.9,2,1.4,5.3,1.4,10V19.2z"/>
</svg>
